<svg width="22" height="22" viewBox="0 0 22 22" fill="none" xmlns="http://www.w3.org/2000/svg">
<path d="M16.4987 11.917V10.0837H20.1654V11.917H16.4987ZM17.5987 18.3337L14.6654 16.1337L15.7654 14.667L18.6987 16.867L17.5987 18.3337ZM15.7654 7.33366L14.6654 5.86699L17.5987 3.66699L18.6987 5.13366L15.7654 7.33366ZM4.58203 17.417V13.7503H3.66536C3.1612 13.7503 2.7296 13.5708 2.37057 13.2118C2.01155 12.8528 1.83203 12.4212 1.83203 11.917V10.0837C1.83203 9.57949 2.01155 9.14789 2.37057 8.78887C2.7296 8.42984 3.1612 8.25033 3.66536 8.25033H7.33203L11.9154 5.50033V16.5003L7.33203 13.7503H6.41536V17.417H4.58203ZM12.832 14.0712V7.92949C13.2445 8.29616 13.5768 8.74303 13.8289 9.27012C14.081 9.7972 14.207 10.3739 14.207 11.0003C14.207 11.6267 14.081 12.2035 13.8289 12.7305C13.5768 13.2576 13.2445 13.7045 12.832 14.0712Z" fill="#4F4F4F"/>
</svg>
