<svg width="40" height="40" viewBox="0 0 40 40" fill="none" xmlns="http://www.w3.org/2000/svg">
<rect width="40" height="40" rx="10" fill="#F6F8FB"/>
<path d="M10.5808 27.0093L10.5608 27.0293C10.2908 26.4393 10.1208 25.7693 10.0508 25.0293C10.1208 25.7593 10.3108 26.4193 10.5808 27.0093Z" fill="#5678E9"/>
<path d="M17.0011 18.3791C18.3155 18.3791 19.3811 17.3136 19.3811 15.9991C19.3811 14.6847 18.3155 13.6191 17.0011 13.6191C15.6867 13.6191 14.6211 14.6847 14.6211 15.9991C14.6211 17.3136 15.6867 18.3791 17.0011 18.3791Z" fill="#5678E9"/>
<path d="M24.19 10H15.81C12.17 10 10 12.17 10 15.81V24.19C10 25.28 10.19 26.23 10.56 27.03C11.42 28.93 13.26 30 15.81 30H24.19C27.83 30 30 27.83 30 24.19V21.9V15.81C30 12.17 27.83 10 24.19 10ZM28.37 20.5C27.59 19.83 26.33 19.83 25.55 20.5L21.39 24.07C20.61 24.74 19.35 24.74 18.57 24.07L18.23 23.79C17.52 23.17 16.39 23.11 15.59 23.65L11.85 26.16C11.63 25.6 11.5 24.95 11.5 24.19V15.81C11.5 12.99 12.99 11.5 15.81 11.5H24.19C27.01 11.5 28.5 12.99 28.5 15.81V20.61L28.37 20.5Z" fill="#5678E9"/>
</svg>
