<svg width="32" height="32" viewBox="0 0 32 32" fill="none" xmlns="http://www.w3.org/2000/svg">
<path d="M15.0941 4H6.78745C4.13411 4 2.80078 5.34667 2.80078 8.02667V29.3333H10.0008V24.3333C10.0008 23.7867 10.4541 23.3333 11.0008 23.3333C11.5474 23.3333 12.0008 23.7733 12.0008 24.3333V29.3333H19.0674V8.02667C19.0674 5.34667 17.7474 4 15.0941 4ZM14.3341 17H7.73412C7.18745 17 6.73412 16.5467 6.73412 16C6.73412 15.4533 7.18745 15 7.73412 15H14.3341C14.8808 15 15.3341 15.4533 15.3341 16C15.3341 16.5467 14.8808 17 14.3341 17ZM14.3341 12H7.73412C7.18745 12 6.73412 11.5467 6.73412 11C6.73412 10.4533 7.18745 10 7.73412 10H14.3341C14.8808 10 15.3341 10.4533 15.3341 11C15.3341 11.5467 14.8808 12 14.3341 12Z" fill="#EB37C3"/>
<path d="M30.6654 28.3332H27.6387V24.3332C28.9054 23.9198 29.8254 22.7332 29.8254 21.3332V18.6665C29.8254 16.9198 28.3987 15.4932 26.652 15.4932C24.9054 15.4932 23.4787 16.9198 23.4787 18.6665V21.3332C23.4787 22.7198 24.3854 23.8932 25.6254 24.3198V28.3332H1.33203C0.785365 28.3332 0.332031 28.7865 0.332031 29.3332C0.332031 29.8798 0.785365 30.3332 1.33203 30.3332H26.572C26.5987 30.3332 26.612 30.3465 26.6387 30.3465C26.6654 30.3465 26.6787 30.3332 26.7054 30.3332H30.6654C31.212 30.3332 31.6654 29.8798 31.6654 29.3332C31.6654 28.7865 31.212 28.3332 30.6654 28.3332Z" fill="#EB37C3"/>
</svg>
