<svg width="32" height="32" viewBox="0 0 32 32" fill="none" xmlns="http://www.w3.org/2000/svg">
<path d="M13.668 13.373C13.668 14.093 13.868 14.1997 14.3213 14.3597L15.0013 14.5997V12.333H14.6013C14.0946 12.333 13.668 12.7997 13.668 13.373Z" fill="#869FF3"/>
<path d="M17 19.6671H17.4C17.92 19.6671 18.3333 19.2004 18.3333 18.6271C18.3333 17.9071 18.1333 17.8004 17.68 17.6404L17 17.4004V19.6671Z" fill="#869FF3"/>
<path d="M26.108 7.30699L23.3746 10.0403C23.1746 10.2403 22.9213 10.3337 22.668 10.3337C22.4146 10.3337 22.1613 10.2403 21.9613 10.0403C21.5746 9.65366 21.5746 9.01366 21.9613 8.62699L24.6946 5.89366C22.348 3.89366 19.3213 2.66699 16.0013 2.66699C8.6413 2.66699 2.66797 8.64033 2.66797 16.0003C2.66797 23.3603 8.6413 29.3337 16.0013 29.3337C23.3613 29.3337 29.3346 23.3603 29.3346 16.0003C29.3346 12.6803 28.108 9.65366 26.108 7.30699ZM18.3346 15.7603C19.188 16.067 20.3346 16.6803 20.3346 18.6403C20.3346 20.307 19.0146 21.6803 17.4013 21.6803H17.0013V22.0137C17.0013 22.5603 16.548 23.0137 16.0013 23.0137C15.4546 23.0137 15.0013 22.5603 15.0013 22.0137V21.6803H14.8946C13.1213 21.6803 11.668 20.187 11.668 18.347C11.668 17.787 12.1213 17.3337 12.668 17.3337C13.2146 17.3337 13.668 17.787 13.668 18.3337C13.668 19.067 14.2146 19.667 14.8946 19.667H15.0013V16.707L13.668 16.2403C12.8146 15.9337 11.668 15.3203 11.668 13.3603C11.668 11.6937 12.988 10.3203 14.6013 10.3203H15.0013V10.0003C15.0013 9.45366 15.4546 9.00033 16.0013 9.00033C16.548 9.00033 17.0013 9.45366 17.0013 10.0003V10.3337H17.108C18.8813 10.3337 20.3346 11.827 20.3346 13.667C20.3346 14.2137 19.8813 14.667 19.3346 14.667C18.788 14.667 18.3346 14.2137 18.3346 13.667C18.3346 12.9337 17.788 12.3337 17.108 12.3337H17.0013V15.2937L18.3346 15.7603Z" fill="#869FF3"/>
<path d="M30.2533 2.28033C30.1467 2.04033 29.96 1.84033 29.7067 1.73366C29.5867 1.69366 29.4667 1.66699 29.3333 1.66699H24C23.4533 1.66699 23 2.12033 23 2.66699C23 3.21366 23.4533 3.66699 24 3.66699H26.92L24.6933 5.89366C25.2 6.33366 25.6667 6.80033 26.1067 7.30699L28.3333 5.08033V8.00033C28.3333 8.54699 28.7867 9.00033 29.3333 9.00033C29.88 9.00033 30.3333 8.54699 30.3333 8.00033V2.66699C30.3333 2.53366 30.3067 2.41366 30.2533 2.28033Z" fill="#869FF3"/>
</svg>
