<svg width="28" height="28" viewBox="0 0 28 28" fill="none" xmlns="http://www.w3.org/2000/svg">
<path d="M19.588 0.666992H8.41464C3.5613 0.666992 0.667969 3.56033 0.667969 8.41366V19.5737C0.667969 24.4403 3.5613 27.3337 8.41464 27.3337H19.5746C24.428 27.3337 27.3213 24.4403 27.3213 19.587V8.41366C27.3346 3.56033 24.4413 0.666992 19.588 0.666992ZM19.0013 19.0003H9.0013C8.45464 19.0003 8.0013 18.547 8.0013 18.0003C8.0013 17.4537 8.45464 17.0003 9.0013 17.0003H19.0013C19.548 17.0003 20.0013 17.4537 20.0013 18.0003C20.0013 18.547 19.548 19.0003 19.0013 19.0003ZM19.0013 11.0003H9.0013C8.45464 11.0003 8.0013 10.547 8.0013 10.0003C8.0013 9.45366 8.45464 9.00033 9.0013 9.00033H19.0013C19.548 9.00033 20.0013 9.45366 20.0013 10.0003C20.0013 10.547 19.548 11.0003 19.0013 11.0003Z" fill="#FF6A00"/>
</svg>
