<svg width="20" height="20" viewBox="0 0 20 20" fill="none" xmlns="http://www.w3.org/2000/svg">
<path d="M20 14.19L20 5.81C20 2.17 17.83 -9.48537e-08 14.19 -2.53963e-07L5.82 -6.19827e-07C2.17 -7.79374e-07 -9.48537e-08 2.17 -2.53963e-07 5.81L-6.19827e-07 14.18C-7.78937e-07 17.82 2.17 19.99 5.81 19.99L14.19 19.99C17.83 20 20 17.83 20 14.19ZM9 6C9 5.44 9.45 5 10 5C10.55 5 11 5.45 11 6C11 6.55 10.55 7 10 7C9.45 7 9 6.56 9 6ZM9 10C9 9.44 9.45 9 10 9C10.55 9 11 9.45 11 10C11 10.55 10.55 11 10 11C9.45 11 9 10.56 9 10ZM9 14C9 13.44 9.45 13 10 13C10.55 13 11 13.45 11 14C11 14.55 10.55 15 10 15C9.45 15 9 14.56 9 14Z" fill="white"/>
</svg>
