<svg width="20" height="21" viewBox="0 0 20 21" fill="none" xmlns="http://www.w3.org/2000/svg">
<path d="M13.493 2.16699H6.50964C3.4763 2.16699 1.66797 3.97533 1.66797 7.00866V13.9837C1.66797 17.0253 3.4763 18.8337 6.50964 18.8337H13.4846C16.518 18.8337 18.3263 17.0253 18.3263 13.992V7.00866C18.3346 3.97533 16.5263 2.16699 13.493 2.16699ZM13.3346 11.1253H10.6263V13.8337C10.6263 14.1753 10.343 14.4587 10.0013 14.4587C9.65964 14.4587 9.3763 14.1753 9.3763 13.8337V11.1253H6.66797C6.3263 11.1253 6.04297 10.842 6.04297 10.5003C6.04297 10.1587 6.3263 9.87532 6.66797 9.87532H9.3763V7.16699C9.3763 6.82532 9.65964 6.54199 10.0013 6.54199C10.343 6.54199 10.6263 6.82532 10.6263 7.16699V9.87532H13.3346C13.6763 9.87532 13.9596 10.1587 13.9596 10.5003C13.9596 10.842 13.6763 11.1253 13.3346 11.1253Z" fill="white"/>
</svg>
