<svg width="25" height="25" viewBox="0 0 25 25" fill="none" xmlns="http://www.w3.org/2000/svg">
<path d="M16.69 2.5H8.31C4.67 2.5 2.5 4.67 2.5 8.31V16.68C2.5 20.33 4.67 22.5 8.31 22.5H16.68C20.32 22.5 22.49 20.33 22.49 16.69V8.31C22.5 4.67 20.33 2.5 16.69 2.5ZM17.32 14.74L13.03 19.03C12.89 19.17 12.7 19.25 12.5 19.25C12.3 19.25 12.11 19.17 11.97 19.03L7.68 14.74C7.39 14.45 7.39 13.97 7.68 13.68C7.97 13.39 8.45 13.39 8.74 13.68L11.75 16.69V6.5C11.75 6.09 12.09 5.75 12.5 5.75C12.91 5.75 13.25 6.09 13.25 6.5V16.69L16.26 13.68C16.55 13.39 17.03 13.39 17.32 13.68C17.47 13.83 17.54 14.02 17.54 14.21C17.54 14.4 17.46 14.6 17.32 14.74Z" fill="white"/>
</svg>
