<svg width="42" height="42" viewBox="0 0 42 42" fill="none" xmlns="http://www.w3.org/2000/svg">
<circle cx="21" cy="21" r="21" fill="#F6F8FB"/>
<path d="M20.05 23.95L18.2 25.8C17.81 26.19 17.19 26.19 16.79 25.81C16.68 25.7 16.57 25.6 16.46 25.49C15.43 24.45 14.5 23.36 13.67 22.22C12.85 21.08 12.19 19.94 11.71 18.81C11.24 17.67 11 16.58 11 15.54C11 14.86 11.12 14.21 11.36 13.61C11.6 13 11.98 12.44 12.51 11.94C13.15 11.31 13.85 11 14.59 11C14.87 11 15.15 11.06 15.4 11.18C15.66 11.3 15.89 11.48 16.07 11.74L18.39 15.01C18.57 15.26 18.7 15.49 18.79 15.71C18.88 15.92 18.93 16.13 18.93 16.32C18.93 16.56 18.86 16.8 18.72 17.03C18.59 17.26 18.4 17.5 18.16 17.74L17.4 18.53C17.29 18.64 17.24 18.77 17.24 18.93C17.24 19.01 17.25 19.08 17.27 19.16C17.3 19.24 17.33 19.3 17.35 19.36C17.53 19.69 17.84 20.12 18.28 20.64C18.73 21.16 19.21 21.69 19.73 22.22C19.83 22.32 19.94 22.42 20.04 22.52C20.44 22.91 20.45 23.55 20.05 23.95Z" fill="#4F4F4F"/>
<path d="M30.9716 27.3291C30.9716 27.6091 30.9216 27.8991 30.8216 28.1791C30.7916 28.2591 30.7616 28.3391 30.7216 28.4191C30.5516 28.7791 30.3316 29.1191 30.0416 29.4391C29.5516 29.9791 29.0116 30.3691 28.4016 30.6191C28.3916 30.6191 28.3816 30.6291 28.3716 30.6291C27.7816 30.8691 27.1416 30.9991 26.4516 30.9991C25.4316 30.9991 24.3416 30.7591 23.1916 30.2691C22.0416 29.7791 20.8916 29.1191 19.7516 28.2891C19.3616 27.9991 18.9716 27.7091 18.6016 27.3991L21.8716 24.1291C22.1516 24.3391 22.4016 24.4991 22.6116 24.6091C22.6616 24.6291 22.7216 24.6591 22.7916 24.6891C22.8716 24.7191 22.9516 24.7291 23.0416 24.7291C23.2116 24.7291 23.3416 24.6691 23.4516 24.5591L24.2116 23.8091C24.4616 23.5591 24.7016 23.3691 24.9316 23.2491C25.1616 23.1091 25.3916 23.0391 25.6416 23.0391C25.8316 23.0391 26.0316 23.0791 26.2516 23.1691C26.4716 23.2591 26.7016 23.3891 26.9516 23.5591L30.2616 25.9091C30.5216 26.0891 30.7016 26.2991 30.8116 26.5491C30.9116 26.7991 30.9716 27.0491 30.9716 27.3291Z" fill="#4F4F4F"/>
</svg>
