<svg width="36" height="36" viewBox="0 0 36 36" fill="none" xmlns="http://www.w3.org/2000/svg">
<rect width="36" height="36" rx="5" fill="#F4F4F4"/>
<path d="M25.7666 12.1925C25.3007 9.84167 23.5566 8.8125 21.1299 8.8125H11.6182C8.75823 8.8125 6.85156 10.2425 6.85156 13.5792V19.1583C6.85156 21.5633 7.8374 22.9717 9.4624 23.5783C9.70073 23.665 9.96073 23.7408 10.2316 23.7842C10.6649 23.8817 11.1307 23.925 11.6182 23.925H21.1407C24.0007 23.925 25.9074 22.495 25.9074 19.1583V13.5792C25.9074 13.07 25.8641 12.615 25.7666 12.1925ZM10.9899 17.9992C10.9899 18.4433 10.6216 18.8117 10.1774 18.8117C9.73323 18.8117 9.3649 18.4433 9.3649 17.9992V14.7492C9.3649 14.305 9.73323 13.9367 10.1774 13.9367C10.6216 13.9367 10.9899 14.305 10.9899 14.7492V17.9992ZM16.3741 19.2342C14.7924 19.2342 13.5141 17.9558 13.5141 16.3742C13.5141 14.7925 14.7924 13.5142 16.3741 13.5142C17.9557 13.5142 19.2341 14.7925 19.2341 16.3742C19.2341 17.9558 17.9557 19.2342 16.3741 19.2342ZM23.3724 17.9992C23.3724 18.4433 23.0041 18.8117 22.5599 18.8117C22.1157 18.8117 21.7474 18.4433 21.7474 17.9992V14.7492C21.7474 14.305 22.1157 13.9367 22.5599 13.9367C23.0041 13.9367 23.3724 14.305 23.3724 14.7492V17.9992Z" fill="#202224"/>
<path d="M29.1595 16.8292V22.4083C29.1595 25.745 27.2529 27.1858 24.382 27.1858H14.8704C14.0579 27.1858 13.332 27.0667 12.7037 26.8283C12.1945 26.6442 11.7504 26.3733 11.3929 26.0267C11.1979 25.8425 11.3495 25.55 11.6204 25.55H21.132C25.1404 25.55 27.5237 23.1667 27.5237 19.1692V13.5792C27.5237 13.3192 27.8162 13.1567 28.0004 13.3517C28.737 14.1317 29.1595 15.2692 29.1595 16.8292Z" fill="#202224"/>
</svg>
