<svg width="20" height="20" viewBox="0 0 20 20" fill="none" xmlns="http://www.w3.org/2000/svg">
<path d="M10.832 12.8327C10.832 11.1042 10.832 10.24 11.3812 9.70299C11.9304 9.16602 12.8143 9.16602 14.582 9.16602C16.3498 9.16602 17.2337 9.16602 17.7829 9.70299C18.332 10.24 18.332 11.1042 18.332 12.8327V14.666C18.332 16.3945 18.332 17.2587 17.7829 17.7957C17.2337 18.3327 16.3498 18.3327 14.582 18.3327C12.8143 18.3327 11.9304 18.3327 11.3812 17.7957C10.832 17.2587 10.832 16.3945 10.832 14.666V12.8327Z" fill="#4F4F4F"/>
<path d="M1.66797 7.16602C1.66797 8.8945 1.66797 9.75874 2.21714 10.2957C2.76632 10.8327 3.6502 10.8327 5.41797 10.8327C7.18574 10.8327 8.06962 10.8327 8.61879 10.2957C9.16797 9.75874 9.16797 8.8945 9.16797 7.16602V5.33268C9.16797 3.6042 9.16797 2.73996 8.61879 2.20299C8.06962 1.66602 7.18574 1.66602 5.41797 1.66602C3.6502 1.66602 2.76632 1.66602 2.21714 2.20299C1.66797 2.73996 1.66797 3.6042 1.66797 5.33268V7.16602Z" fill="#4F4F4F"/>
<path d="M10.832 4.58268C10.832 3.67668 10.832 3.22369 10.9748 2.86635C11.1651 2.38991 11.5301 2.01138 11.9895 1.81403C12.3341 1.66602 12.7709 1.66602 13.6445 1.66602H15.5195C16.3932 1.66602 16.83 1.66602 17.1746 1.81403C17.634 2.01138 17.999 2.38991 18.1893 2.86635C18.332 3.22369 18.332 3.67668 18.332 4.58268C18.332 5.48868 18.332 5.94168 18.1893 6.29901C17.999 6.77545 17.634 7.15399 17.1746 7.35134C16.83 7.49935 16.3932 7.49935 15.5195 7.49935H13.6445C12.7709 7.49935 12.3341 7.49935 11.9895 7.35134C11.5301 7.15399 11.1651 6.77545 10.9748 6.29901C10.832 5.94168 10.832 5.48868 10.832 4.58268Z" fill="#4F4F4F"/>
<path d="M1.66797 15.4167C1.66797 16.3227 1.66797 16.7757 1.81069 17.133C2.001 17.6094 2.36601 17.988 2.82544 18.1853C3.17001 18.3333 3.60683 18.3333 4.48047 18.3333H6.35547C7.22911 18.3333 7.66593 18.3333 8.0105 18.1853C8.46993 17.988 8.83494 17.6094 9.02524 17.133C9.16797 16.7757 9.16797 16.3227 9.16797 15.4167C9.16797 14.5107 9.16797 14.0577 9.02524 13.7003C8.83494 13.2239 8.46993 12.8454 8.0105 12.648C7.66593 12.5 7.22911 12.5 6.35547 12.5H4.48047C3.60683 12.5 3.17001 12.5 2.82544 12.648C2.36601 12.8454 2.001 13.2239 1.81069 13.7003C1.66797 14.0577 1.66797 14.5107 1.66797 15.4167Z" fill="#4F4F4F"/>
</svg>
