<svg width="20" height="20" viewBox="0 0 20 20" fill="none" xmlns="http://www.w3.org/2000/svg">
<path d="M14.19 0H5.81C2.17 0 0 2.17 0 5.81V14.19C0 17.83 2.17 20 5.81 20H14.19C17.83 20 20 17.83 20 14.19V5.81C20 2.17 17.83 0 14.19 0ZM12.26 10C13.04 10.27 14.08 10.84 14.08 12.63C14.08 14.17 12.88 15.42 11.4 15.42H10.75V16C10.75 16.41 10.41 16.75 10 16.75C9.59 16.75 9.25 16.41 9.25 16V15.42H8.89C7.25 15.42 5.92 14.03 5.92 12.33C5.92 11.92 6.25 11.58 6.67 11.58C7.08 11.58 7.42 11.92 7.42 12.33C7.42 13.21 8.08 13.92 8.89 13.92H9.25V10.53L7.74 10C6.96 9.73 5.92 9.16 5.92 7.37C5.92 5.83 7.12 4.58 8.6 4.58H9.25V4C9.25 3.59 9.59 3.25 10 3.25C10.41 3.25 10.75 3.59 10.75 4V4.58H11.11C12.75 4.58 14.08 5.97 14.08 7.67C14.08 8.08 13.75 8.42 13.33 8.42C12.92 8.42 12.58 8.08 12.58 7.67C12.58 6.79 11.92 6.08 11.11 6.08H10.75V9.47L12.26 10Z" fill="#292D32"/>
</svg>
