<svg width="36" height="36" viewBox="0 0 36 36" fill="none" xmlns="http://www.w3.org/2000/svg">
<rect width="36" height="36" rx="5" fill="#F4F4F4"/>
<path d="M13.5129 25.0806C17.4314 25.0806 20.6079 21.904 20.6079 17.9856C20.6079 14.0671 17.4314 10.8906 13.5129 10.8906C9.59449 10.8906 6.41797 14.0671 6.41797 17.9856C6.41797 21.904 9.59449 25.0806 13.5129 25.0806Z" fill="#FF6041"/>
<path d="M22.4504 25.0806C26.3689 25.0806 29.5454 21.904 29.5454 17.9856C29.5454 14.0671 26.3689 10.8906 22.4504 10.8906C18.532 10.8906 15.3555 14.0671 15.3555 17.9856C15.3555 21.904 18.532 25.0806 22.4504 25.0806Z" fill="#FFD941"/>
<path fill-rule="evenodd" clip-rule="evenodd" d="M17.98 12.5263C18.799 13.1882 19.4596 14.0249 19.9134 14.9751C20.3672 15.9253 20.6028 16.965 20.6028 18.0181C20.6028 19.0711 20.3672 20.1108 19.9134 21.0611C19.4596 22.0113 18.799 22.848 17.98 23.5099C17.1548 22.8483 16.4888 22.0098 16.0312 21.0563C15.5735 20.1028 15.3359 19.0586 15.3359 18.001C15.3359 16.9434 15.5735 15.8993 16.0312 14.9458C16.4888 13.9923 17.1548 13.1879 17.98 12.5263Z" fill="#FFD941"/>
<mask id="mask0_1469_139408" style="mask-type:luminance" maskUnits="userSpaceOnUse" x="15" y="12" width="6" height="12">
<path d="M17.98 12.5263C18.799 13.1882 19.4596 14.0249 19.9134 14.9751C20.3672 15.9253 20.6028 16.965 20.6028 18.0181C20.6028 19.0711 20.3672 20.1108 19.9134 21.0611C19.4596 22.0113 18.799 22.848 17.98 23.5099C17.1548 22.8483 16.4888 22.0098 16.0312 21.0563C15.5735 20.1028 15.3359 19.0586 15.3359 18.001C15.3359 16.9434 15.5735 15.8993 16.0312 14.9458C16.4888 13.9923 17.1548 13.1879 17.98 12.5263Z" fill="white"/>
</mask>
<g mask="url(#mask0_1469_139408)">
<path fill-rule="evenodd" clip-rule="evenodd" d="M14.0547 13.8906H22.5141V14.8116H14.0547V13.8906ZM14.0547 15.6985H22.5141V16.6195H14.0547V15.6985ZM14.0547 17.5404H22.5141V18.4614H14.0547V17.5404ZM14.0547 19.3483H22.5141V20.2693H14.0547V19.3483ZM14.0547 21.1561H22.5141V22.0771H14.0547V21.1561Z" fill="#FF6041"/>
</g>
</svg>
