<svg width="19" height="20" viewBox="0 0 19 20" fill="none" xmlns="http://www.w3.org/2000/svg">
<path fill-rule="evenodd" clip-rule="evenodd" d="M5.07172 0H13.4527C16.5417 0 18.2617 1.78 18.2617 4.83V15.16C18.2617 18.26 16.5417 20 13.4527 20H5.07172C2.03172 20 0.261719 18.26 0.261719 15.16V4.83C0.261719 1.78 2.03172 0 5.07172 0ZM5.34172 4.66V4.65H8.33072C8.76172 4.65 9.11172 5 9.11172 5.429C9.11172 5.87 8.76172 6.22 8.33072 6.22H5.34172C4.91072 6.22 4.56172 5.87 4.56172 5.44C4.56172 5.01 4.91072 4.66 5.34172 4.66ZM5.34172 10.74H13.1817C13.6117 10.74 13.9617 10.39 13.9617 9.96C13.9617 9.53 13.6117 9.179 13.1817 9.179H5.34172C4.91072 9.179 4.56172 9.53 4.56172 9.96C4.56172 10.39 4.91072 10.74 5.34172 10.74ZM5.34172 15.31H13.1817C13.5807 15.27 13.8817 14.929 13.8817 14.53C13.8817 14.12 13.5807 13.78 13.1817 13.74H5.34172C5.04172 13.71 4.75172 13.85 4.59172 14.11C4.43172 14.36 4.43172 14.69 4.59172 14.95C4.75172 15.2 5.04172 15.35 5.34172 15.31Z" fill="#E74C3C"/>
</svg>
