<svg width="24" height="24" viewBox="0 0 24 24" fill="none" xmlns="http://www.w3.org/2000/svg">
<path d="M10.9367 1.93151C8.55221 1.93551 6.26655 2.88451 4.58048 4.57058C2.8944 6.25666 1.9454 8.54232 1.94141 10.9268C1.9434 13.3133 2.89127 15.6016 4.57735 17.2906C6.26342 18.9795 8.55021 19.9312 10.9367 19.9372C13.0532 19.9372 15.0035 19.1926 16.5455 17.9605L20.291 21.706C20.4808 21.8824 20.7315 21.9785 20.9906 21.9739C21.2496 21.9694 21.4968 21.8646 21.6803 21.6817C21.8637 21.4987 21.9692 21.2518 21.9744 20.9927C21.9796 20.7337 21.8843 20.4827 21.7083 20.2925L17.9628 16.5432C19.242 14.9522 19.9394 12.972 19.9395 10.9306C19.9395 5.97183 15.8954 1.93151 10.9367 1.93151ZM10.9367 3.93466C14.8145 3.93466 17.9364 7.05277 17.9364 10.9268C17.9364 14.8008 14.8145 17.9378 10.9367 17.9378C7.05889 17.9378 3.94078 14.8121 3.94078 10.9343C3.94078 7.05655 7.05889 3.93466 10.9367 3.93466Z" fill="#202224"/>
</svg>
