<svg width="36" height="36" viewBox="0 0 36 36" fill="none" xmlns="http://www.w3.org/2000/svg">
<rect width="36" height="36" rx="5" fill="#F4F4F4"/>
<path d="M14.872 13.9445L11.4686 22.0658H9.24724L7.57359 15.5852C7.47056 15.1856 7.3825 15.0402 7.07355 14.8704C6.56746 14.5968 5.73501 14.3402 5 14.1803L5.05144 13.9446H8.62537C9.08119 13.9446 9.49099 14.2486 9.59403 14.7727L10.479 19.4732L12.6648 13.9446L14.872 13.9445ZM23.5732 19.4131C23.583 17.2708 20.6089 17.1542 20.6303 16.1958C20.6361 15.9033 20.9134 15.5937 21.5206 15.5156C21.8222 15.4754 22.652 15.446 23.5925 15.8778L23.9611 14.1565C23.4551 13.9728 22.8046 13.7969 21.9962 13.7969C19.9198 13.7969 18.458 14.9013 18.4457 16.4816C18.4321 17.6502 19.4886 18.3023 20.2855 18.6915C21.1038 19.0897 21.3774 19.344 21.3745 19.7011C21.3692 20.2462 20.7216 20.4844 20.1176 20.4951C19.0611 20.5116 18.4483 20.2096 17.959 19.9817L17.5786 21.7623C18.0688 21.9873 18.9764 22.1827 19.9156 22.1943C22.1225 22.1942 23.5662 21.1015 23.5732 19.4131ZM29.0565 22.0658H31L29.3042 13.9446H27.51C27.1069 13.9446 26.767 14.1797 26.6155 14.5399L23.465 22.0658H25.6702L26.1079 20.853H28.8035L29.0565 22.0658ZM26.7122 19.1884L27.8186 16.139L28.455 19.1884H26.7122ZM17.8743 13.9445L16.1361 22.0658H14.0348L15.7734 13.9445H17.8743Z" fill="#1A2ADF"/>
</svg>
