<svg width="20" height="21" viewBox="0 0 20 21" fill="none" xmlns="http://www.w3.org/2000/svg">
<path d="M17.7096 8.12604C15.7846 5.10104 12.968 3.35938 10.0013 3.35938C8.51797 3.35938 7.0763 3.79271 5.75964 4.60104C4.44297 5.41771 3.25964 6.60937 2.29297 8.12604C1.45964 9.43437 1.45964 11.5594 2.29297 12.8677C4.21797 15.901 7.03464 17.6344 10.0013 17.6344C11.4846 17.6344 12.9263 17.201 14.243 16.3927C15.5596 15.576 16.743 14.3844 17.7096 12.8677C18.543 11.5677 18.543 9.43437 17.7096 8.12604ZM10.0013 13.8677C8.13464 13.8677 6.63464 12.3594 6.63464 10.501C6.63464 8.64271 8.13464 7.13437 10.0013 7.13437C11.868 7.13437 13.368 8.64271 13.368 10.501C13.368 12.3594 11.868 13.8677 10.0013 13.8677Z" fill="white"/>
<path d="M10 8.11719C8.69167 8.11719 7.625 9.18385 7.625 10.5005C7.625 11.8089 8.69167 12.8755 10 12.8755C11.3083 12.8755 12.3833 11.8089 12.3833 10.5005C12.3833 9.19219 11.3083 8.11719 10 8.11719Z" fill="white"/>
</svg>
